<?xml version="1.0" encoding="UTF-8" standalone="no"?>
<!DOCTYPE svg PUBLIC "-//W3C//DTD SVG 1.1//EN" "http://www.w3.org/Graphics/SVG/1.1/DTD/svg11.dtd">
<!-- Created with Vectornator (http://vectornator.io/) -->
<svg height="100%" stroke-miterlimit="10" style="fill-rule:nonzero;clip-rule:evenodd;stroke-linecap:round;stroke-linejoin:round;" version="1.1" viewBox="0 0 1584 396" width="100%" xml:space="preserve" xmlns="http://www.w3.org/2000/svg" xmlns:vectornator="http://vectornator.io" xmlns:xlink="http://www.w3.org/1999/xlink">
<defs/>
<path d="M0 0L1584 0L1584 396L0 396L0 0Z" fill="#7b8b27" fill-rule="nonzero" opacity="1" stroke="none"/>
<g id="Untitled" vectornator:layerName="Untitled">
<path d="M530.675 115.242C539.728 118.903 549.173 121.164 558.823 122.646C572.057 124.68 585.374 125.157 598.714 124.529C615.268 123.75 631.815 122.752 648.361 121.723C662.745 120.831 677.113 119.644 691.504 118.812C722.797 117.004 754.106 115.318 785.406 113.632C800.637 112.815 799.117 112.618 796.107 99.1875C790.284 73.1654 775.136 54.562 750.377 44.1335C747.065 42.742 743.677 41.4943 740.251 40.3977C728.862 36.7527 717.103 34.9301 705.222 34.2193C689.379 33.2664 673.513 33.9168 657.685 34.7184C636.813 35.7847 615.964 37.2291 595.107 38.5071C595.107 38.4542 595.099 38.4012 595.099 38.3483C591.144 38.5601 587.181 38.7642 583.226 38.9911C561.288 40.2616 539.342 41.5245 517.404 42.8252C505.538 43.5285 493.673 44.315 481.807 45.0939C479.751 45.2301 478.412 46.7577 478.783 48.7012C479.735 53.6394 480.348 58.7213 481.959 63.4478C490.345 88.033 506.499 105.479 530.675 115.242Z" fill="#ffffff" fill-rule="nonzero" opacity="1" stroke="none" vectornator:layerName="path"/>
<path d="M793.468 296.021C785.058 291.793 776.18 288.897 766.962 287.037C750.287 283.679 733.438 282.62 716.46 283.535C713.586 283.687 710.713 283.951 707.839 284.095C683.034 285.32 658.222 286.53 633.418 287.748C633.418 287.808 633.425 287.869 633.425 287.937C615.102 289.033 596.778 290.167 578.447 291.211C560.834 292.217 543.221 293.109 525.609 294.1C523.469 294.221 521.344 294.614 519.218 294.947C517.978 295.144 516.746 296.822 516.935 298.161C517.434 301.715 517.661 305.36 518.636 308.786C525.654 333.311 540.363 351.513 563.519 362.57C572.669 366.941 582.364 369.618 592.309 371.478C605.838 374.011 619.511 374.526 633.191 373.966C654.411 373.096 675.623 371.902 696.821 370.676C714.07 369.678 731.297 368.355 748.54 367.326C766.508 366.252 784.484 365.368 802.459 364.354C811.088 363.87 819.709 363.296 828.33 362.744C829.767 362.653 831.196 362.517 832.626 362.343C834.395 362.131 835.658 360.422 835.59 358.509C835.356 351.944 833.488 345.751 831.423 339.595C824.821 319.804 812.063 305.36 793.468 296.021Z" fill="#ffffff" fill-rule="nonzero" opacity="1" stroke="none" vectornator:layerName="path"/>
<path d="M549.627 259.744C560.441 263.949 571.663 266.429 583.166 267.609C596.808 269.008 610.466 269.454 624.161 268.191C628.464 267.798 632.798 267.79 637.108 267.548C651.847 266.724 666.594 265.915 681.333 265.015C701.464 263.782 721.587 262.444 741.711 261.211C764.36 259.82 787.002 258.458 809.659 257.165C816.072 256.802 816.336 255.365 815.527 249.837C815.058 246.639 814.302 243.47 813.47 240.339C807.14 216.616 793.052 199.381 770.561 189.248C767.287 187.773 763.929 186.442 760.518 185.3C749.538 181.632 738.24 179.492 726.684 178.751C704.708 177.337 682.77 178.683 660.824 179.765C653.987 180.105 647.166 180.619 640.337 181.012C633.146 181.428 625.954 181.791 618.762 182.177C618.762 182.215 618.769 182.253 618.769 182.298C601.512 183.296 584.255 184.325 566.99 185.293C549.733 186.261 532.468 187.145 515.203 188.136C510.529 188.401 505.863 188.862 501.205 189.301C500.154 189.399 499.065 189.641 498.119 190.087C497.59 190.337 496.985 191.153 496.985 191.713C497.023 197.907 498.392 203.881 500.562 209.621C509.592 233.48 525.699 250.442 549.627 259.744Z" fill="#ffffff" fill-rule="nonzero" opacity="1" stroke="none" vectornator:layerName="path"/>
<path d="M1003.12 280.14C998.536 274.302 992.948 269.515 986.474 265.854C978.458 261.325 969.822 259.003 960.603 258.852C956.588 258.784 952.602 259.101 948.655 259.759C943.8 260.576 939.089 261.915 934.74 264.297C927.299 268.388 920.803 273.697 915.562 280.336C905.844 292.648 902.706 306.812 904.491 322.224C907.009 337.432 914.299 349.797 926.618 359.106C931.708 362.955 937.327 365.784 943.497 367.493C951.181 369.633 958.947 370.2 966.873 369.126C977.528 367.689 987.057 363.651 995.103 356.573C1007.9 345.32 1014.46 331.065 1014.64 315.131C1014.55 310.208 1014.32 306.48 1013.53 302.797C1011.75 294.478 1008.38 286.84 1003.12 280.14ZM959.446 349.676C943.868 350.243 924.017 337.689 923.918 314.375C923.835 294.372 939.905 278.559 959.144 278.801C979.222 278.763 994.528 294.372 994.71 314.049C994.891 333.613 978.269 350.22 959.446 349.676Z" fill="#ffffff" fill-rule="nonzero" opacity="1" stroke="none" vectornator:layerName="path"/>
<path d="M1096.33 366.563C1095.85 365.33 1095.29 364.135 1094.75 362.925C1089.52 351.218 1084.28 339.512 1079.04 327.805C1078.66 326.958 1078.27 326.119 1077.93 325.264C1077.42 324.039 1077.59 322.928 1078.57 321.997C1079.23 321.355 1079.95 320.765 1080.63 320.137C1083.38 317.619 1085.75 314.775 1087.67 311.592C1092.75 303.22 1093.96 294.266 1091.33 284.874C1088.45 274.597 1081.96 267.261 1072.43 262.603C1067.35 260.122 1061.94 259.094 1056.3 259.109C1045.98 259.139 1035.67 259.116 1025.35 259.116C1024.56 259.116 1023.76 259.132 1022.98 259.207C1021.56 259.343 1020.49 260.394 1020.4 261.771C1020.32 262.958 1020.32 264.153 1020.32 265.34C1020.32 281.743 1020.32 298.146 1020.32 314.556C1020.32 330.959 1020.32 347.362 1020.32 363.772C1020.32 364.959 1020.32 366.154 1020.39 367.341C1020.47 368.733 1021.5 369.784 1022.91 369.988C1023.3 370.049 1023.7 370.102 1024.09 370.102C1027.8 370.109 1031.49 370.117 1035.2 370.094C1035.72 370.094 1036.25 369.988 1036.76 369.875C1037.75 369.663 1038.67 368.657 1038.76 367.651C1038.85 366.6 1038.88 365.542 1038.89 364.483C1038.9 358.925 1038.9 353.374 1038.9 347.815C1038.9 343.051 1038.91 338.287 1038.9 333.53C1038.89 330.528 1039.75 329.507 1042.87 329.363C1043.13 329.348 1043.4 329.348 1043.66 329.348C1047.37 329.348 1051.06 329.341 1054.77 329.356C1055.43 329.356 1056.09 329.416 1056.75 329.469C1058.63 329.635 1059.98 330.475 1060.59 332.358C1060.78 332.986 1061.11 333.568 1061.39 334.173C1065.99 344.427 1070.58 354.682 1075.18 364.937C1075.61 365.905 1076.07 366.857 1076.49 367.825C1077.07 369.179 1078.1 369.875 1079.54 370.011C1080.07 370.056 1080.59 370.117 1081.12 370.117C1085.35 370.124 1089.58 370.124 1093.81 370.109C1094.34 370.109 1094.87 370.003 1095.38 369.913C1096.11 369.784 1096.72 368.922 1096.63 368.12C1096.56 367.591 1096.52 367.046 1096.33 366.563ZM1070.86 298.479C1068.98 304.188 1064.91 307.689 1058.89 308.71C1057.86 308.884 1056.79 308.945 1055.74 308.945C1051.52 308.968 1047.29 308.96 1043.07 308.952C1042.41 308.952 1041.76 308.907 1041.1 308.839C1040.05 308.726 1039.12 307.833 1039 306.774C1038.91 305.988 1038.88 305.194 1038.88 304.407C1038.87 300.974 1038.87 297.541 1038.87 294.107C1038.87 294.107 1038.87 294.107 1038.88 294.107C1038.88 290.674 1038.87 287.241 1038.9 283.808C1038.9 283.029 1038.99 282.227 1039.18 281.463C1039.42 280.495 1040.09 279.845 1041.09 279.671C1041.86 279.535 1042.66 279.474 1043.45 279.474C1047.54 279.459 1051.63 279.452 1055.72 279.482C1056.77 279.489 1057.83 279.588 1058.88 279.731C1063.49 280.367 1066.97 282.817 1069.44 286.666C1071.78 290.341 1072.19 294.448 1070.86 298.479Z" fill="#ffffff" fill-rule="nonzero" opacity="1" stroke="none" vectornator:layerName="path"/>
<path d="M915.97 204.062C925.408 195.532 930.43 181.897 925.892 167.884C921.937 155.671 913.399 147.912 901.141 144.267C897.564 143.2 893.858 142.996 890.145 142.996C881.153 142.989 872.162 142.996 863.178 142.996C861.99 142.996 860.795 142.989 859.608 143.019C859.086 143.034 858.549 143.11 858.043 143.231C856.908 143.511 856.182 144.267 855.971 145.394C855.804 146.294 855.782 147.231 855.774 148.154C855.759 155.293 855.766 162.439 855.766 169.578C855.766 170.236 855.774 170.901 855.827 171.559C856.016 173.836 857.642 175.348 859.653 175.371C863.223 175.409 866.792 175.416 870.362 175.363C872.101 175.341 873.674 174.327 874.06 171.892C874.181 171.113 874.143 170.312 874.173 169.518C874.203 168.723 874.188 167.929 874.272 167.143C874.445 165.532 875.663 164.171 877.244 163.808C877.758 163.687 878.287 163.596 878.809 163.596C883.172 163.581 887.536 163.536 891.899 163.619C894.017 163.657 896.104 164.05 898.055 164.98C908.204 169.805 909.285 182.873 901.42 189.384C899.008 191.38 896.286 192.621 893.132 192.779C891.816 192.847 890.493 192.855 889.169 192.855C880.178 192.863 871.186 192.855 862.202 192.863C861.143 192.863 860.085 192.847 859.033 192.915C857.196 193.036 856.016 194.118 855.872 195.857C855.774 197.045 855.782 198.232 855.782 199.427C855.774 207.496 855.782 215.565 855.774 223.626C855.774 231.559 855.774 239.5 855.774 247.433C855.774 248.491 855.759 249.55 855.812 250.609C855.834 251.131 855.94 251.66 856.092 252.159C856.341 252.961 856.923 253.498 857.717 253.755C858.088 253.876 858.489 253.966 858.882 253.966C862.981 253.982 867.08 253.974 871.178 253.966C871.307 253.966 871.443 253.929 871.572 253.914C872.948 253.747 873.977 252.726 874.098 251.282C874.196 250.095 874.188 248.907 874.188 247.712C874.196 238.32 874.188 228.935 874.196 219.543C874.196 218.355 874.219 217.16 874.302 215.981C874.385 214.816 875.073 214.007 876.245 213.788C877.274 213.599 878.34 213.485 879.384 213.47C883.218 213.432 887.052 213.455 890.886 213.455C891.415 213.455 891.945 213.47 892.474 213.478C894.365 213.508 895.733 214.241 896.497 216.102C897.548 218.673 898.728 221.184 899.855 223.725C903.772 232.542 907.712 241.352 911.607 250.178C913.218 253.838 913.581 253.989 917.581 254.004C921.022 254.019 924.455 254.012 927.896 254.004C928.554 254.004 929.22 253.982 929.878 253.929C931.216 253.815 931.995 252.696 931.609 251.418C931.42 250.79 931.14 250.185 930.876 249.588C928.615 244.521 926.338 239.454 924.07 234.387C920.667 226.787 917.271 219.187 913.883 211.579C913.452 210.619 913.036 209.636 912.749 208.63C912.53 207.844 912.688 207.027 913.324 206.429C914.155 205.605 915.086 204.856 915.97 204.062Z" fill="#ffffff" fill-rule="nonzero" opacity="1" stroke="none" vectornator:layerName="path"/>
<path d="M1079.16 147.715C1073.77 144.539 1067.89 142.959 1061.55 142.959L1026.48 142.959C1025.74 142.959 1025.07 143.253 1024.5 143.828C1023.92 144.41 1023.63 145.121 1023.63 145.968L1023.63 160.564C1023.63 161.411 1023.92 162.129 1024.5 162.704C1025.08 163.286 1025.74 163.574 1026.48 163.574L1061.55 163.574C1065.56 163.574 1069.03 165.003 1071.94 167.854C1074.85 170.712 1076.3 174.199 1076.3 178.328C1076.3 182.351 1074.85 185.784 1071.94 188.643C1069.03 191.501 1065.56 192.931 1061.55 192.931L1026.48 192.931C1025.74 192.931 1025.07 193.226 1024.5 193.8C1023.92 194.383 1023.63 195.093 1023.63 195.94L1023.63 210.997C1021.68 203.79 1017.38 198.549 1010.54 195.464C1009.54 195.01 1008.51 194.609 1007.47 194.262C1004.11 193.142 1000.66 192.484 997.122 192.258C990.407 191.827 983.699 192.235 976.991 192.568C974.904 192.673 972.817 192.832 970.729 192.953C968.529 193.082 966.336 193.195 964.135 193.309C964.135 193.324 964.135 193.331 964.135 193.347C958.857 193.649 953.586 193.967 948.307 194.262C943.029 194.557 937.758 194.829 932.479 195.131C931.05 195.214 929.628 195.351 928.199 195.487C927.881 195.517 927.541 195.593 927.253 195.729C927.087 195.804 926.906 196.054 926.906 196.228C926.921 198.118 927.337 199.948 928.002 201.703C930.762 208.993 935.685 214.181 942.998 217.024C946.303 218.31 949.736 219.066 953.253 219.429C957.42 219.86 961.594 219.996 965.784 219.611C967.1 219.49 968.423 219.49 969.739 219.414C974.246 219.164 978.753 218.915 983.253 218.643C989.409 218.265 995.557 217.856 1001.7 217.478C1008.62 217.055 1015.55 216.639 1022.47 216.238C1022.96 216.208 1023.33 216.162 1023.61 216.079L1023.61 232.436C1021.89 230.727 1019.85 229.29 1017.52 228.118C1014.95 226.825 1012.23 225.94 1009.42 225.373C1004.32 224.345 999.172 224.027 993.984 224.307C993.107 224.352 992.229 224.435 991.352 224.481C983.767 224.859 976.189 225.222 968.604 225.6C968.604 225.623 968.604 225.638 968.604 225.661C963.001 225.993 957.405 226.341 951.801 226.659C946.416 226.969 941.032 227.241 935.648 227.544C934.99 227.581 934.339 227.702 933.697 227.801C933.318 227.861 932.94 228.375 933.001 228.784C933.152 229.873 933.22 230.984 933.523 232.028C935.67 239.522 940.162 245.088 947.241 248.469C950.039 249.807 953.003 250.624 956.043 251.191C960.18 251.962 964.354 252.121 968.536 251.955C975.025 251.69 981.506 251.327 987.987 250.949C993.258 250.647 998.521 250.238 1003.79 249.921C1009.28 249.588 1014.78 249.323 1020.27 249.013C1021.38 248.953 1022.49 248.877 1023.61 248.809L1023.61 251.35C1023.61 252.091 1023.9 252.756 1024.48 253.331C1025.07 253.914 1025.72 254.201 1026.46 254.201L1038.68 254.201C1039.53 254.201 1040.24 253.936 1040.83 253.407C1041.41 252.877 1041.69 252.189 1041.69 251.342L1041.69 215.958C1041.69 215.005 1041.91 214.37 1042.33 214.052C1042.75 213.735 1043.55 213.576 1044.71 213.576L1061.53 213.576C1067.88 213.576 1073.75 211.988 1079.14 208.819C1084.54 205.643 1088.82 201.363 1092 195.963C1095.18 190.571 1096.76 184.695 1096.76 178.35C1096.76 172.006 1095.18 166.107 1092 160.654C1088.84 155.202 1084.55 150.884 1079.16 147.715Z" fill="#ffffff" fill-rule="nonzero" opacity="1" stroke="none" vectornator:layerName="path"/>
<path d="M937.206 172.853C939.973 173.972 942.862 174.66 945.811 175.114C949.857 175.734 953.926 175.885 958.002 175.688C963.061 175.446 968.12 175.144 973.18 174.834C977.573 174.562 981.967 174.199 986.368 173.942C995.935 173.389 1005.5 172.875 1015.07 172.361C1019.73 172.111 1019.26 172.051 1018.34 167.945C1016.56 159.989 1011.93 154.302 1004.37 151.118C1003.35 150.695 1002.32 150.309 1001.27 149.976C997.795 148.865 994.195 148.305 990.566 148.086C985.726 147.791 980.871 147.995 976.038 148.237C969.663 148.562 963.288 149.001 956.913 149.394C956.913 149.379 956.913 149.364 956.913 149.349C955.703 149.417 954.493 149.477 953.283 149.545C946.575 149.931 939.867 150.317 933.167 150.717C929.537 150.937 925.915 151.171 922.285 151.413C921.657 151.451 921.249 151.92 921.362 152.517C921.65 154.03 921.839 155.58 922.33 157.025C924.879 164.534 929.817 169.865 937.206 172.853Z" fill="#ffffff" fill-rule="nonzero" opacity="1" stroke="none" vectornator:layerName="path"/>
<path d="M908.113 277.546C908.847 277.463 909.595 276.646 909.694 275.95C909.747 275.557 909.807 275.164 909.807 274.771C909.815 270.407 909.807 266.044 909.807 261.68C909.807 261.552 909.792 261.415 909.784 261.287C909.694 259.903 908.915 259.003 907.606 258.905C906.419 258.814 905.232 258.806 904.045 258.806C902.85 258.806 901.662 258.806 900.468 258.806C885.124 258.806 869.779 258.806 854.435 258.806L854.435 282.318C854.473 283.414 854.496 284.511 854.496 285.607C854.503 311.395 854.496 337.175 854.503 362.963C854.503 364.286 854.488 365.61 854.549 366.925C854.624 368.529 855.479 369.383 856.999 369.474C857.392 369.497 857.793 369.504 858.186 369.504C863.344 369.504 868.494 369.504 873.651 369.504C874.045 369.504 874.445 369.504 874.839 369.489C876.669 369.398 877.365 368.688 877.433 366.721C877.478 365.534 877.463 364.339 877.463 363.152C877.463 350.326 877.463 337.5 877.463 324.675C877.463 311.448 877.463 298.229 877.463 285.002C877.463 283.815 877.44 282.62 877.546 281.433C877.735 279.406 879.104 278.053 881.161 277.871C882.341 277.765 883.535 277.78 884.723 277.78C889.971 277.773 895.212 277.78 900.46 277.773C901.957 277.773 903.455 277.773 904.944 277.765C906.018 277.765 907.069 277.667 908.113 277.546Z" fill="#ffffff" fill-rule="nonzero" opacity="1" stroke="none" vectornator:layerName="path"/>
<path d="M1094.62 137.529C1094.23 137.544 1093.84 137.642 1093.45 137.718C1092.83 137.839 1092.26 138.421 1092.17 139.064C1092.08 139.714 1091.99 140.372 1091.98 141.03C1091.97 144.864 1091.97 148.698 1091.98 152.532C1091.98 153.19 1092.04 153.856 1092.12 154.506C1092.23 155.452 1093.01 156.261 1093.93 156.336C1095.12 156.427 1096.3 156.465 1097.49 156.465C1100.08 156.472 1102.69 156.472 1105.28 156.472L1105.28 137.498C1102.65 137.498 1100.02 137.498 1097.4 137.498C1096.48 137.498 1095.55 137.491 1094.62 137.529Z" fill="#ffffff" fill-rule="nonzero" opacity="1" stroke="none" vectornator:layerName="path"/>
<g opacity="1" vectornator:layerName="g">
<path d="M1002.17 29.5684C999.656 26.5586 996.653 24.1159 993.326 22.0665C993.167 21.9682 992.986 21.8472 992.812 21.8321C992.645 21.817 992.403 21.8699 992.297 21.9909C992.086 22.2178 991.912 22.4976 991.76 22.7698C990.921 24.3428 990.097 25.9233 989.257 27.4963C982.035 41.101 974.972 54.7889 967.659 68.3482C964.18 74.7913 960.83 81.295 957.42 87.7759C955.816 90.8236 954.365 93.9317 953.117 97.1381C951.324 101.721 949.963 106.41 949.343 111.31C948.625 116.974 949.162 122.487 951.173 127.841C951.415 128.499 951.687 129.142 952.005 129.77C953.699 133.158 955.892 136.19 958.524 138.905C960.399 140.841 962.607 142.338 964.922 143.707C965.111 143.579 965.315 143.511 965.406 143.374C965.648 143.004 965.844 142.603 966.056 142.21C976.734 121.935 987.412 101.66 998.09 81.3857C998.355 80.8791 998.597 80.3572 998.846 79.843C999.232 79.0414 999.58 78.2171 999.988 77.4306C1001.74 74.1032 1003.35 70.7152 1004.71 67.2063C1006.51 62.563 1007.9 57.8063 1008.47 52.8378C1008.84 49.6616 1008.86 46.493 1008.37 43.3168C1007.58 38.1593 1005.52 33.5765 1002.17 29.5684Z" fill="#ffffff" fill-rule="nonzero" opacity="1" stroke="none" vectornator:layerName="path"/>
<path d="M950.583 74.209C951.393 75.1392 952.981 75.1392 953.797 74.1939C954.085 73.8612 954.319 73.4755 954.531 73.0823C956.55 69.3994 958.562 65.7165 960.558 62.0261C960.861 61.4665 961.118 60.8842 961.329 60.2867C961.821 58.9331 961.836 57.5567 961.413 56.1652C961.133 55.2502 960.747 54.3805 960.293 53.5411C958.35 49.896 956.406 46.2434 954.47 42.5908C952.799 39.4449 951.151 36.2914 949.479 33.1454C949.184 32.5858 948.859 32.0337 948.511 31.5044C948.065 30.8389 947.445 30.4078 946.636 30.3171C945.94 30.2339 945.244 30.1658 944.549 30.1658C942.257 30.1431 939.973 30.1583 937.682 30.1583L937.682 30.1583C935.459 30.1583 933.228 30.1583 931.004 30.1583C930.558 30.1583 930.112 30.1356 929.673 30.1885C929.303 30.2339 928.925 30.3246 928.577 30.4683C928.07 30.6801 927.79 31.096 927.707 31.6329C927.632 32.1472 927.684 32.6539 927.919 33.1227C928.176 33.6294 928.448 34.1361 928.728 34.6352C935.489 46.9543 942.257 59.2734 949.018 71.5925C949.32 72.1521 949.615 72.7193 949.941 73.2638C950.13 73.6041 950.334 73.9217 950.583 74.209Z" fill="#ffffff" fill-rule="nonzero" opacity="1" stroke="none" vectornator:layerName="path"/>
<path d="M1074.61 79.2683C1069.71 76.9466 1063.35 74.4435 1055.56 71.7664C1053.43 70.9119 1051.08 69.8985 1048.49 68.7036C1044.12 66.7072 1041.2 65.2325 1039.73 64.2872C1036.05 61.9731 1034.21 59.2356 1034.21 56.0821C1034.21 54.0856 1035.02 52.1118 1036.65 50.1607C1038.28 48.2172 1040.51 46.561 1043.36 45.1923C1047.15 43.7176 1051.19 42.984 1055.51 42.984C1059.19 42.984 1062.88 43.5134 1066.56 44.5646C1069.71 45.404 1073.45 47.0375 1077.77 49.4574C1078.29 49.775 1078.82 49.9339 1079.35 49.9339C1079.98 49.9339 1080.45 49.775 1080.77 49.4574L1080.93 49.2986C1080.9 49.2986 1080.89 49.3137 1080.87 49.3213L1082.67 46.7728C1085.72 42.4622 1087.51 39.7247 1088.04 38.5676C1088.14 38.3559 1088.04 37.9929 1087.72 37.4635C1087.4 36.9417 1086.98 36.4653 1086.46 36.0418C1083.61 33.6218 1080.57 31.5724 1077.31 29.886C1073.82 28.245 1069.74 27.0123 1065.05 26.1653C1059.75 24.9781 1054.79 24.7663 1050.3 25.1369C1050.15 25.1444 1050 25.1444 1049.85 25.152C1049.45 25.1974 1049.05 25.2503 1048.66 25.3032C1048.33 25.341 1048.02 25.3789 1047.7 25.4242C1047.65 25.4318 1047.6 25.4394 1047.55 25.4469C1039.89 26.5132 1033.84 29.1827 1030.18 31.1868C1029.39 31.6102 1028.63 32.0564 1027.91 32.5177C1026.81 33.2059 1026.23 33.6596 1026.23 33.6596L1026.23 33.6596C1023.58 35.5881 1021.35 37.8265 1019.54 40.3675C1017.43 43.3546 1016.01 46.6442 1015.29 50.2288C1014.65 52.4899 1014.33 54.8116 1014.33 57.1862C1014.33 62.132 1015.8 66.9189 1018.74 71.5471C1021.16 75.0182 1024.87 77.9373 1029.87 80.3043C1034.77 82.626 1041.12 85.1291 1048.92 87.8062C1051.05 88.6607 1053.4 89.6741 1056 90.8614C1060.36 92.8578 1063.29 94.3325 1064.75 95.2778C1068.44 97.5919 1070.27 100.329 1070.27 103.483C1070.27 105.479 1069.46 107.453 1067.83 109.404C1066.2 111.348 1063.97 113.004 1061.12 114.373C1057.33 115.847 1053.29 116.581 1048.97 116.581C1045.29 116.581 1041.6 116.052 1037.92 115C1034.77 114.161 1031.03 112.528 1026.71 110.108C1026.19 109.79 1025.66 109.631 1025.13 109.631C1024.51 109.631 1024.03 109.79 1023.71 110.108L1023.55 110.266C1023.58 110.266 1023.59 110.251 1023.61 110.244L1021.81 112.792C1018.77 117.103 1016.97 119.84 1016.44 120.997C1016.34 121.209 1016.44 121.572 1016.76 122.102C1017.08 122.623 1017.5 123.1 1018.02 123.523C1020.87 125.943 1023.92 127.993 1027.17 129.679C1030.75 131.358 1034.96 132.621 1039.8 133.468C1044.64 134.307 1049.59 134.625 1054.64 134.413C1061.58 133.672 1067.74 131.751 1073.11 128.651C1078.48 125.542 1082.66 121.678 1085.65 117.05C1088.66 112.422 1090.15 107.529 1090.15 102.371C1090.15 97.4255 1088.68 92.6385 1085.74 88.0104C1083.32 84.5619 1079.6 81.6353 1074.61 79.2683Z" fill="#ffffff" fill-rule="nonzero" opacity="1" stroke="none" vectornator:layerName="path"/>
<path d="M909.92 79.238C905.02 76.9164 898.668 74.4132 890.871 71.7362C888.738 70.8816 886.386 69.8682 883.793 68.681C879.429 66.6845 876.502 65.2098 875.035 64.2645C871.352 61.9505 869.515 59.2129 869.515 56.0594C869.515 54.0629 870.332 52.0891 871.957 50.138C873.591 48.1945 875.822 46.5384 878.665 45.1696C882.454 43.6949 886.5 42.9614 890.818 42.9614C894.501 42.9614 898.184 43.4907 901.867 44.5419C905.02 45.3813 908.756 47.0148 913.074 49.4347C913.596 49.7524 914.125 49.9112 914.655 49.9112C915.282 49.9112 915.759 49.7524 916.076 49.4347L916.235 49.2759C916.205 49.2759 916.197 49.2911 916.175 49.2986L917.974 46.7501C921.022 42.4396 922.814 39.702 923.344 38.5449C923.45 38.3332 923.344 37.9702 923.026 37.4408C922.708 36.919 922.285 36.4426 921.763 36.0191C918.92 33.5991 915.872 31.5497 912.613 29.8633C909.036 28.1845 904.823 26.9216 899.984 26.0746C895.144 25.2352 890.198 24.9176 885.146 25.1293C878.204 25.8704 872.048 27.7913 866.679 30.8918C861.31 34 857.128 37.8643 854.133 42.4925C851.131 47.1207 849.633 52.0135 849.633 57.171C849.633 62.1168 851.108 66.9038 854.05 71.532C856.47 75.0031 860.175 77.9222 865.174 80.2892C870.074 82.6108 876.427 85.114 884.216 87.7911C886.349 88.6456 888.7 89.659 891.294 90.8538C895.665 92.8503 898.585 94.3249 900.052 95.2702C903.734 97.5843 905.572 100.322 905.572 103.475C905.572 105.472 904.755 107.446 903.129 109.397C901.496 111.34 899.265 112.996 896.422 114.365C892.633 115.84 888.587 116.573 884.269 116.573C880.586 116.573 876.903 116.044 873.22 114.993C870.067 114.153 866.331 112.52 862.013 110.1C861.491 109.782 860.962 109.624 860.432 109.624C859.805 109.624 859.328 109.782 859.011 110.1L858.852 110.259C858.882 110.259 858.89 110.244 858.912 110.236L857.113 112.785C854.065 117.095 852.273 119.833 851.743 120.99C851.637 121.202 851.743 121.565 852.061 122.094C852.378 122.616 852.802 123.092 853.324 123.516C856.167 125.936 859.215 127.985 862.474 129.671C865.96 131.312 870.044 132.545 874.725 133.392C880.034 134.579 884.995 134.791 889.479 134.421C889.631 134.413 889.782 134.413 889.933 134.405C890.334 134.36 890.727 134.307 891.12 134.254C891.446 134.216 891.763 134.179 892.081 134.133C892.134 134.126 892.179 134.118 892.232 134.111C899.893 133.044 905.935 130.375 909.603 128.371C910.389 127.947 911.146 127.501 911.872 127.04C912.968 126.352 913.55 125.898 913.55 125.898L913.55 125.898C916.205 123.969 918.428 121.731 920.236 119.19C922.353 116.203 923.767 112.913 924.493 109.329C925.128 107.068 925.454 104.746 925.454 102.371C925.454 97.4255 923.979 92.6385 921.037 88.0104C918.625 84.5317 914.919 81.605 909.92 79.238Z" fill="#ffffff" fill-rule="nonzero" opacity="1" stroke="none" vectornator:layerName="path"/>
</g>
</g>
</svg>
